<svg width="100" height="100" viewBox="0 0 100 100" xmlns="http://www.w3.org/2000/svg">
  <defs>
    <pattern id="wheat-pattern" x="0" y="0" width="50" height="50" patternUnits="userSpaceOnUse">
      <path d="M25,10 C25,10 25,25 25,25 M25,10 L20,15 M25,10 L30,15 M25,15 L22,20 M25,15 L28,20" stroke="#4CAF50" stroke-width="1" fill="none" opacity="0.1"/>
      <path d="M25,10 C25,10 25,25 25,25 M25,10 L20,15 M25,10 L30,15 M25,15 L22,20 M25,15 L28,20" stroke="#4CAF50" stroke-width="1" fill="none" opacity="0.1" transform="translate(25,25)"/>
    </pattern>
  </defs>
  <rect x="0" y="0" width="100" height="100" fill="url(#wheat-pattern)"/>
</svg>