<svg width="100" height="100" viewBox="0 0 100 100" xmlns="http://www.w3.org/2000/svg">
  <defs>
    <pattern id="farm-pattern" patternUnits="userSpaceOnUse" width="100" height="100">
      <path d="M15,15 Q25,5 35,15 T55,15 T75,15 T95,15" fill="none" stroke="#4CAF50" stroke-width="1" opacity="0.1"/>
      <path d="M15,35 Q25,25 35,35 T55,35 T75,35 T95,35" fill="none" stroke="#4CAF50" stroke-width="1" opacity="0.1"/>
      <path d="M15,55 Q25,45 35,55 T55,55 T75,55 T95,55" fill="none" stroke="#4CAF50" stroke-width="1" opacity="0.1"/>
      <path d="M15,75 Q25,65 35,75 T55,75 T75,75 T95,75" fill="none" stroke="#4CAF50" stroke-width="1" opacity="0.1"/>
      <path d="M15,95 Q25,85 35,95 T55,95 T75,95 T95,95" fill="none" stroke="#4CAF50" stroke-width="1" opacity="0.1"/>
    </pattern>
  </defs>
  <rect width="100" height="100" fill="url(#farm-pattern)"/>
</svg>